<?xml version="1.0" encoding="UTF-8" standalone="no"?>
<!-- Created with Inkscape (http://www.inkscape.org/) -->

<svg
   xmlns:dc="http://purl.org/dc/elements/1.1/"
   xmlns:cc="http://creativecommons.org/ns#"
   xmlns:rdf="http://www.w3.org/1999/02/22-rdf-syntax-ns#"
   xmlns:svg="http://www.w3.org/2000/svg"
   xmlns="http://www.w3.org/2000/svg"
   xmlns:sodipodi="http://sodipodi.sourceforge.net/DTD/sodipodi-0.dtd"
   xmlns:inkscape="http://www.inkscape.org/namespaces/inkscape"
   width="200"
   height="90"
   viewBox="0 0 52.916666 23.812501"
   version="1.1"
   id="svg8"
   inkscape:version="0.92.4 (5da689c313, 2019-01-14)"
   sodipodi:docname="logo.svg">
  <defs
     id="defs2" />
  <sodipodi:namedview
     id="base"
     pagecolor="#ffffff"
     bordercolor="#666666"
     borderopacity="1.0"
     inkscape:pageopacity="0.0"
     inkscape:pageshadow="2"
     inkscape:zoom="2.8"
     inkscape:cx="109.72328"
     inkscape:cy="8.3065734"
     inkscape:document-units="mm"
     inkscape:current-layer="layer1"
     showgrid="false"
     units="px"
     inkscape:window-width="1680"
     inkscape:window-height="987"
     inkscape:window-x="1592"
     inkscape:window-y="-8"
     inkscape:window-maximized="1" />
  <metadata
     id="metadata5">
    <rdf:RDF>
      <cc:Work
         rdf:about="">
        <dc:format>image/svg+xml</dc:format>
        <dc:type
           rdf:resource="http://purl.org/dc/dcmitype/StillImage" />
        <dc:title></dc:title>
      </cc:Work>
    </rdf:RDF>
  </metadata>
  <g
     inkscape:label="Layer 1"
     inkscape:groupmode="layer"
     id="layer1"
     transform="translate(0,-273.18748)">
    <g
       aria-label="hanza"
       transform="matrix(0.46895219,0,0,0.46895219,26.805141,279.00053)"
       style="font-style:normal;font-weight:normal;font-size:40px;line-height:1.25;font-family:sans-serif;letter-spacing:0.05px;word-spacing:0px;fill:#ffffff;fill-opacity:1;stroke:none"
       id="flowRoot815">
      <path
         d="m -26.594844,22.573213 q 0.52,0 0.8,0.48 0.32,0.48 0.32,1.32 0,1.6 -0.76,2.48 -1.84,2.12 -3.8,3.48 -1.92,1.36 -4.4,1.36 -2.04,0 -3.08,-1.16 -1.04,-1.2 -1.04,-3.44 0,-1.12 0.56,-4 0.52,-2.52 0.52,-3.48 0,-0.64 -0.44,-0.64 -0.52,0 -1.48,1.36 -0.96,1.32 -1.92,3.52 -0.96,2.2 -1.56,4.64 -0.76,3.2 -3.76,3.2 -1.2,0 -1.6,-0.84 -0.36,-0.88 -0.36,-3.12 0,-1.28 0.04,-2.04 l 0.04,-3.2 q 0,-6.16 1.24,-12.8400003 1.28,-6.68 3.72,-11.2 2.48,-4.56 5.92,-4.56 1.84,0 2.96,1.6 1.16,1.56 1.16,4.07999997 0,4.04000003 -2.36,8.40000003 -2.36,4.3200003 -7.68,10.1200003 -0.12,2.08 -0.12,4.28 1.32,-3.4 2.92,-5.52 1.64,-2.16 3.2,-3.08 1.6,-0.92 2.92,-0.92 2.6,0 2.6,2.6 0,1.56 -0.88,5.64 -0.76,3.48 -0.76,4.6 0,1.6 1.16,1.6 0.8,0 1.88,-0.96 1.12,-1 2.96,-3.2 0.48,-0.56 1.08,-0.56 z m -11.88,-24.7200003 q -0.72,0 -1.6,2.07999997 -0.88,2.04000003 -1.72,5.56000003 -0.8,3.48 -1.32,7.6000003 2.48,-2.92 4.08,-6.3600003 1.64,-3.44 1.64,-6.24000003 0,-1.28 -0.28,-1.95999997 -0.28,-0.68 -0.8,-0.68 z"
         style="font-style:normal;font-variant:normal;font-weight:normal;font-stretch:normal;font-family:Pacifico;-inkscape-font-specification:Pacifico;letter-spacing:1.25999725px;fill:#ffffff"
         id="path823" />
      <path
         d="m -22.536722,31.693213 q -2.48,0 -3.96,-1.8 -1.48,-1.8 -1.48,-4.72 0,-3.2 1.48,-6.04 1.48,-2.88 3.92,-4.6 2.48,-1.76 5.24,-1.76 0.88,0 1.16,0.36 0.32,0.32 0.52,1.2 0.84,-0.16 1.76,-0.16 1.96,0 1.96,1.4 0,0.84 -0.6,4 -0.92,4.6 -0.92,6.4 0,0.6 0.28,0.96 0.32,0.36 0.8,0.36 0.76,0 1.84,-0.96 1.0799997,-1 2.9199997,-3.2 0.48,-0.56 1.08,-0.56 0.52,0 0.8,0.48 0.32,0.48 0.32,1.32 0,1.6 -0.76,2.48 -1.64,2.04 -3.48,3.44 -1.8399997,1.4 -3.5599997,1.4 -1.32,0 -2.44,-0.88 -1.08,-0.92 -1.64,-2.48 -2.08,3.36 -5.24,3.36 z m 1.44,-4.04 q 0.88,0 1.68,-1.04 0.8,-1.04 1.16,-2.76 l 1.48,-7.36 q -1.68,0.04 -3.12,1.28 -1.4,1.2 -2.24,3.2 -0.84,2 -0.84,4.24 0,1.24 0.48,1.84 0.52,0.6 1.4,0.6 z"
         style="font-style:normal;font-variant:normal;font-weight:normal;font-stretch:normal;font-family:Pacifico;-inkscape-font-specification:Pacifico;letter-spacing:1.25999725px;fill:#ffffff"
         id="path825" />
      <path
         d="m -4.5286009,31.693213 q -1.52,0 -2.16,-1.6 -0.6,-1.6 -0.6,-5.12 0,-5.2 1.48,-9.88 0.36,-1.16 1.16,-1.68 0.84,-0.56 2.32,-0.56 0.8,0 1.12,0.2 0.31999998,0.2 0.31999998,0.76 0,0.64 -0.59999998,2.88 -0.4,1.6 -0.64,2.8 -0.24,1.2 -0.4,2.96 1.32,-3.44 2.95999998,-5.6 1.64000002,-2.16 3.20000002,-3.08 1.6,-0.92 2.92,-0.92 2.6,0 2.6,2.6 0,1.56 -0.88,5.64 -0.76,3.48 -0.76,4.6 0,1.6 1.16,1.6 0.8,0 1.8799999,-0.96 1.12,-1 2.96,-3.2 0.48,-0.56 1.08,-0.56 0.52,0 0.8,0.48 0.32,0.48 0.32,1.32 0,1.6 -0.76,2.48 -1.72,2.12 -3.72,3.48 -1.9599999,1.36 -4.4799999,1.36 -2.04,0 -3.08,-1.16 -1.04,-1.2 -1.04,-3.44 0,-1.12 0.56,-4 0.52,-2.52 0.52,-3.48 0,-0.64 -0.44,-0.64 -0.52,0 -1.48,1.36 -0.92000002,1.32 -1.92000002,3.52 -0.95999998,2.2 -1.55999998,4.64 -0.44,1.88 -1.04,2.56 -0.56,0.64 -1.8,0.64 z"
         style="font-style:normal;font-variant:normal;font-weight:normal;font-stretch:normal;font-family:Pacifico;-inkscape-font-specification:Pacifico;letter-spacing:1.25999725px;fill:#ffffff"
         id="path827" />
      <path
         d="m 32.913897,22.573213 q 0.52,0 0.8,0.48 0.32,0.48 0.32,1.32 0,1.48 -0.76,2.48 -1.88,2.44 -4.68,3.84 -2.76,1.4 -6.24,1.4 -2.72,0 -4.72,-0.8 -2,-0.84 -3.08,-2.24 -1.04,-1.44 -1.04,-3.2 0,-2.64 2.12,-4.68 2.12,-2.04 6.08,-3.92 l -6.56,0.16 q -0.88,0.04 -1.36,-0.6 -0.44,-0.68 -0.44,-1.6 0,-0.96 0.44,-1.68 0.48,-0.76 1.28,-0.76 1.84,0 4.92,0.28 0.64,0.04 2.32,0.16 1.72,0.12 2.88,0.12 0.4,0 1.52,-0.32 0.2,-0.04 0.76,-0.2 0.6,-0.16 1,-0.16 0.64,0 1.04,0.56 0.44,0.56 0.44,1.72 0,1.28 -0.6,2 -0.6,0.72 -1.88,1.28 -3.64,1.56 -6.04,3.36 -2.4,1.76 -2.4,3.52 0,1.12 1.04,1.84 1.04,0.72 3.08,0.72 2.24,0 4.52,-1.12 2.32,-1.12 4.16,-3.4 0.48,-0.56 1.08,-0.56 z"
         style="font-style:normal;font-variant:normal;font-weight:normal;font-stretch:normal;font-family:Pacifico;-inkscape-font-specification:Pacifico;letter-spacing:1.25999725px;fill:#ffffff"
         id="path829" />
      <path
         d="m 36.235767,31.693213 q -2.28,0 -3.72,-1.8 -1.4,-1.8 -1.4,-4.72 0,-3.2 1.48,-6.04 1.48,-2.88 3.92,-4.6 2.48,-1.76 5.24,-1.76 0.88,0 1.16,0.36 0.32,0.32 0.52,1.2 0.76,-0.16 1.68,-0.16 0.96,0 1.48,0.48 0.52,0.48 0.52,1.36 0,0.92 -0.4,3.2 -0.44,2.44 -0.68,4.68 -0.24,2.2 -0.24,4.96 0,1.52 -0.64,2.2 -0.6,0.64 -2,0.64 -1.36,0 -2.04,-0.64 -0.64,-0.68 -0.64,-2.16 l 0.04,-0.64 q -1.24,3.44 -4.28,3.44 z m 1.56,-4.04 q 1.12,0 2.04,-1.56 0.92,-1.56 1.64,-5.56 l 0.76,-4.04 q -1.64,0.04 -3.04,1.28 -1.4,1.2 -2.24,3.2 -0.84,2 -0.84,4.24 0,1.2 0.44,1.84 0.48,0.6 1.24,0.6 z"
         style="font-style:normal;font-variant:normal;font-weight:normal;font-stretch:normal;font-family:Pacifico;-inkscape-font-specification:Pacifico;letter-spacing:1.25999725px;fill:#ffffff"
         id="path831" />
    </g>
  </g>
</svg>
